<svg width="250" height="250" viewBox="0 0 250 250" fill="none" xmlns="http://www.w3.org/2000/svg">
<circle cx="125" cy="125" r="125" fill="#F1F7FF"/>
<path fill-rule="evenodd" clip-rule="evenodd" d="M121.526 194.444C69.3376 194.444 47.5898 187.5 58.152 128.472C58.5736 126.393 58.9794 124.375 59.3732 122.417C68.8465 75.3023 71.4206 62.5 121.526 62.5C171.632 62.5 174.207 75.3025 183.68 122.418C184.074 124.376 184.479 126.394 184.901 128.472C195.463 187.5 173.715 194.444 121.526 194.444ZM143.517 95.4861C143.517 92.4498 145.979 89.9884 149.015 89.9884C152.051 89.9884 154.513 92.4498 154.513 95.4861C154.513 106.141 150.462 114.536 144.077 120.211C137.793 125.797 129.57 128.472 121.526 128.472C113.483 128.472 105.26 125.797 98.9757 120.211C92.5905 114.536 88.5403 106.141 88.5403 95.4861C88.5403 92.4498 91.0017 89.9884 94.038 89.9884C97.0743 89.9884 99.5357 92.4498 99.5357 95.4861C99.5357 103.157 102.358 108.506 106.281 111.993C110.305 115.57 115.826 117.477 121.526 117.477C127.227 117.477 132.748 115.57 136.772 111.993C140.695 108.506 143.517 103.157 143.517 95.4861Z" fill="#494949"/>
</svg>
