<svg width="42" height="42" viewBox="0 0 42 42" fill="none" xmlns="http://www.w3.org/2000/svg">
<rect width="42" height="42" rx="21" fill="#F1F7FF"/>
<path d="M20.5 30C25.7467 30 30 25.7467 30 20.5C30 15.2533 25.7467 11 20.5 11C15.2533 11 11 15.2533 11 20.5C11 25.7467 15.2533 30 20.5 30Z" fill="#494949"/>
<path d="M30.3001 31.0001C30.1201 31.0001 29.9401 30.9301 29.8101 30.8001L27.9501 28.9401C27.6801 28.6701 27.6801 28.2301 27.9501 27.9501C28.2201 27.6801 28.6601 27.6801 28.9401 27.9501L30.8001 29.8101C31.0701 30.0801 31.0701 30.5201 30.8001 30.8001C30.6601 30.9301 30.4801 31.0001 30.3001 31.0001Z" fill="#494949"/>
<circle cx="20.5" cy="20.5" r="3.5" fill="#F1F7FF"/>
</svg>
