<svg width="42" height="42" viewBox="0 0 42 42" fill="none" xmlns="http://www.w3.org/2000/svg">
<circle cx="21" cy="21" r="21" fill="black" fill-opacity="0.7"/>
<g filter="url(#filter0_d_5572_25086)">
<path d="M19.65 27.4388V13.8112C19.65 12.5175 19.08 12 17.64 12H14.01C12.57 12 12 12.5175 12 13.8112V27.4388C12 28.7325 12.57 29.25 14.01 29.25H17.64C19.08 29.25 19.65 28.7325 19.65 27.4388Z" fill="white"/>
<path d="M30 27.4388V13.8112C30 12.5175 29.43 12 27.99 12H24.36C22.93 12 22.35 12.5175 22.35 13.8112V27.4388C22.35 28.7325 22.92 29.25 24.36 29.25H27.99C29.43 29.25 30 28.7325 30 27.4388Z" fill="white"/>
</g>
<defs>
<filter id="filter0_d_5572_25086" x="10" y="10" width="22" height="21.25" filterUnits="userSpaceOnUse" color-interpolation-filters="sRGB">
<feFlood flood-opacity="0" result="BackgroundImageFix"/>
<feColorMatrix in="SourceAlpha" type="matrix" values="0 0 0 0 0 0 0 0 0 0 0 0 0 0 0 0 0 0 127 0" result="hardAlpha"/>
<feOffset/>
<feGaussianBlur stdDeviation="1"/>
<feComposite in2="hardAlpha" operator="out"/>
<feColorMatrix type="matrix" values="0 0 0 0 0 0 0 0 0 0 0 0 0 0 0 0 0 0 0.65 0"/>
<feBlend mode="normal" in2="BackgroundImageFix" result="effect1_dropShadow_5572_25086"/>
<feBlend mode="normal" in="SourceGraphic" in2="effect1_dropShadow_5572_25086" result="shape"/>
</filter>
</defs>
</svg>
