<svg width="106" height="100" viewBox="0 0 106 100" fill="none" xmlns="http://www.w3.org/2000/svg">
<path d="M52.8089 0C23.6429 0 0 21.2749 0 47.5177C0 56.2064 2.59322 64.3496 7.12019 71.3572L0.774531 97.8127C0.444797 99.1902 1.78606 100.379 3.1153 99.8866L29.4528 90.1429C36.4957 93.2736 44.423 95.0354 52.8089 95.0354C81.9749 95.0354 105.618 73.7605 105.618 47.5177C105.618 21.2749 81.9749 0 52.8089 0Z" fill="#11A0EE"/>
<path d="M87.2406 68.3922C86.7426 68.6289 86.2583 68.8948 85.7465 69.1058C85.2347 69.3168 84.723 69.5295 84.1957 69.701C83.5517 69.9103 82.9077 70.123 82.2568 70.3083C81.6781 70.473 81.0925 70.6222 80.5034 70.7475C80.0483 70.8435 79.5932 70.943 79.1364 71.0391C78.5525 71.1609 77.9634 71.2569 77.3744 71.3496C76.2701 71.5228 75.1572 71.6429 74.0444 71.7356C72.2085 71.8865 70.3692 71.9174 68.5282 71.8899C67.4772 71.8728 66.4296 71.8042 65.382 71.7253C64.0425 71.6223 62.7081 71.4697 61.3788 71.2672C60.6404 71.1557 59.9036 71.0288 59.1686 70.8984C58.4404 70.7698 57.7157 70.6222 56.9927 70.4678C56.3435 70.3289 55.6978 70.1676 55.0538 70.0081C54.4819 69.8674 53.91 69.7285 53.3433 69.5672C52.8298 69.4214 52.3163 69.2773 51.8045 69.1229C51.3065 68.9737 50.8136 68.8056 50.3104 68.6752C50.161 68.6375 50.0837 68.5568 50.082 68.4042C50.082 68.3767 50.082 68.3493 50.082 68.3218C50.0837 64.4518 50.082 60.5835 50.0923 56.7134C50.0958 55.7168 50.2486 54.7355 50.489 53.7663C50.6677 53.0476 50.8943 52.3442 51.1897 51.6666C51.7736 50.32 52.5379 49.0849 53.5133 47.9836C54.1659 47.2459 54.8683 46.5649 55.6635 45.9834C56.4741 45.3898 57.331 44.8752 58.2498 44.4566C58.8784 44.1701 59.5241 43.9386 60.1801 43.7361C60.6885 43.58 61.2123 43.4702 61.7412 43.3879C62.4453 43.2798 63.1512 43.1923 63.8639 43.1923C67.1681 43.1923 70.4723 43.1889 73.7748 43.2009C74.4171 43.2026 75.0559 43.2953 75.6896 43.4102C76.1138 43.4874 76.5329 43.5766 76.9502 43.6864C77.4396 43.8151 77.9153 43.9832 78.3859 44.1667C78.92 44.376 79.4421 44.6059 79.9418 44.8838C80.3093 45.0879 80.6648 45.3126 81.0169 45.5425C81.4514 45.8256 81.8636 46.1412 82.2603 46.4791C82.7669 46.9114 83.2426 47.3712 83.6857 47.8669C84.0515 48.2752 84.3967 48.6989 84.7075 49.1466C85.1952 49.85 85.6229 50.5859 85.9766 51.3664C86.193 51.845 86.3905 52.3305 86.552 52.828C86.679 53.2174 86.7889 53.6119 86.8783 54.0116C87.0122 54.612 87.1101 55.2176 87.1685 55.83C87.1942 56.0925 87.2183 56.3549 87.2423 56.6157C87.2406 60.5423 87.2406 64.4672 87.2406 68.3922Z" fill="white"/>
<path d="M21.3003 56.3265C21.3381 56.0384 21.3845 55.7502 21.4137 55.4603C21.4944 54.6609 21.6713 53.882 21.8997 53.1118C22.1367 52.309 22.4544 51.5388 22.8322 50.7943C23.3148 49.8439 23.9038 48.9639 24.5908 48.149C25.3241 47.2793 26.1501 46.5091 27.0724 45.8452C27.8297 45.3014 28.6266 44.828 29.4801 44.4454C30.1756 44.1332 30.8849 43.8742 31.6199 43.6735C32.7379 43.3681 33.8731 43.1931 35.0306 43.1914C38.3486 43.1863 41.6665 43.1846 44.9845 43.1966C45.8706 43.2 46.7448 43.3424 47.612 43.5379C48.2612 43.6838 48.9018 43.8656 49.5183 44.1109C50.4165 44.4677 51.2803 44.8949 52.0892 45.4266C52.2558 45.5364 52.2661 45.6085 52.1287 45.7509C51.3645 46.552 50.6861 47.42 50.0971 48.3566C49.6712 49.0359 49.2968 49.741 48.9687 50.4752C48.5514 51.4101 48.2268 52.3742 47.9916 53.3657C47.7116 54.5494 47.5639 55.7519 47.5639 56.9698C47.5639 60.7575 47.5605 64.5452 47.5657 68.3329C47.5674 68.8613 47.7134 69.3776 47.7752 69.9008C47.7941 70.0569 47.837 70.213 47.8387 70.3691C47.8422 70.5355 47.916 70.6247 48.062 70.6711C48.4089 70.7774 48.7558 70.8821 49.1027 70.9884C49.2281 71.0261 49.3655 71.045 49.4427 71.1565C49.4067 71.2389 49.3569 71.2337 49.3088 71.2389C48.5738 71.3315 47.8439 71.4516 47.1071 71.5425C45.5323 71.7363 43.9523 71.8496 42.3672 71.8856C41.1101 71.9147 39.853 71.9182 38.5976 71.8496C36.9747 71.7586 35.3535 71.6368 33.7409 71.4173C32.5988 71.2612 31.4619 71.0862 30.3268 70.8838C29.3891 70.7157 28.4548 70.5252 27.5275 70.3142C26.7598 70.141 25.9956 69.9489 25.2348 69.7396C24.5478 69.5526 23.8592 69.3708 23.1774 69.1683C22.6794 69.0208 22.1762 68.8887 21.6884 68.7034C21.551 68.652 21.3862 68.6657 21.2969 68.5147C21.3003 64.4509 21.3003 60.3887 21.3003 56.3265Z" fill="white"/>
<path d="M79.5555 31.5613C79.5761 37.5688 74.6473 42.4509 68.6537 42.4338C62.6206 42.4166 57.7639 37.5602 57.7656 31.5373C57.7673 25.5109 62.6842 20.6048 68.8014 20.6631C74.7091 20.7214 79.595 25.5864 79.5555 31.5613Z" fill="white"/>
<path d="M39.8906 20.67C45.934 20.6597 50.789 25.5573 50.7838 31.5528C50.7769 37.6254 45.8618 42.4355 39.8614 42.4269C33.8695 42.4201 28.9888 37.5414 28.9922 31.539C28.9939 25.5076 33.9124 20.646 39.8906 20.67Z" fill="white"/>
</svg>
