<svg width="20" height="20" viewBox="0 0 20 20" fill="none" xmlns="http://www.w3.org/2000/svg">
<path fill-rule="evenodd" clip-rule="evenodd" d="M0.429987 11.6667C0.205965 11.6667 0.0218306 11.4895 0.0158417 11.2656C0.00504117 10.8617 0 10.4401 0 10C0 1.765 1.765 0 10 0C18.235 0 20 1.765 20 10C20 10.4401 19.995 10.8617 19.9842 11.2656C19.9782 11.4895 19.794 11.6667 19.57 11.6667H0.429987ZM14.1667 8.33333C14.1667 7.87308 13.7936 7.5 13.3333 7.5H6.66667C6.20641 7.5 5.83333 7.87308 5.83333 8.33333C5.83333 8.79359 6.20641 9.16667 6.66667 9.16667H13.3333C13.7936 9.16667 14.1667 8.79359 14.1667 8.33333Z" fill="#127FA5"/>
<path d="M0.601071 13.3333C0.354283 13.3333 0.161116 13.5475 0.192172 13.7923C0.827997 18.8048 3.22329 20 10 20C16.7767 20 19.172 18.8048 19.8078 13.7923C19.8389 13.5475 19.6457 13.3333 19.3989 13.3333H0.601071Z" fill="#127FA5"/>
</svg>
