<svg width="42" height="42" viewBox="0 0 42 42" fill="none" xmlns="http://www.w3.org/2000/svg">
<rect width="42" height="42" rx="21" fill="#F1F7FF"/>
<path d="M21 11C18.38 11 16.25 13.13 16.25 15.75C16.25 18.32 18.26 20.4 20.88 20.49C20.96 20.48 21.04 20.48 21.1 20.49C21.12 20.49 21.13 20.49 21.15 20.49C21.16 20.49 21.16 20.49 21.17 20.49C23.73 20.4 25.74 18.32 25.75 15.75C25.75 13.13 23.62 11 21 11Z" fill="#494949"/>
<path d="M26.08 23.15C23.29 21.29 18.74 21.29 15.93 23.15C14.66 24 13.96 25.15 13.96 26.38C13.96 27.61 14.66 28.75 15.92 29.59C17.32 30.53 19.16 31 21 31C22.84 31 24.68 30.53 26.08 29.59C27.34 28.74 28.04 27.6 28.04 26.36C28.03 25.13 27.34 23.99 26.08 23.15Z" fill="#494949"/>
</svg>
