<svg width="98" height="98" viewBox="0 0 98 98" fill="none" xmlns="http://www.w3.org/2000/svg">
<rect width="97.0781" height="97.0781" rx="48.5391" fill="url(#paint0_linear_658_188)"/>
<path d="M43.34 43.888C44.0923 45.2218 44.7507 46.3939 45.3153 47.4031C45.8799 48.411 46.3753 49.3093 46.803 50.0955C47.2307 50.8818 47.6062 51.6015 47.9321 52.2495C48.2568 52.9001 48.5736 53.5325 48.8813 54.1479C49.1551 53.5312 49.4537 52.9079 49.7797 52.2756C50.1043 51.6432 50.4798 50.9235 50.9088 50.1203C51.3365 49.3172 51.8319 48.4188 52.3965 47.4279C52.961 46.437 53.6195 45.2726 54.3718 43.9401L59.861 34.1926C60.4764 33.0987 61.2548 32.2173 62.1962 31.551C63.1336 30.8821 64.3058 30.5483 65.7074 30.5483C67.0412 30.5483 68.2473 30.933 69.3243 31.7035C70.4025 32.4728 71.1796 33.6619 71.6594 35.2682L80.3287 65.4339H69.7611L66.5288 53.4803C65.9812 51.5311 65.5197 49.8217 65.1441 48.3497C64.7673 46.8803 64.4427 45.4434 64.1702 44.0405C63.5874 45.2387 62.938 46.5634 62.2209 48.0172C61.5025 49.471 60.5611 51.3094 59.3994 53.5325L54.7825 62.1522C54.3379 63.0062 53.8855 63.6829 53.4226 64.177C52.961 64.6738 52.4904 65.0584 52.0118 65.3323C51.5333 65.6061 51.0196 65.786 50.4733 65.8707C49.9257 65.9555 49.3272 65.9998 48.6779 65.9998C48.0273 65.9998 47.4288 65.9555 46.8812 65.8707C46.3336 65.786 45.8212 65.6048 45.3427 65.3323C44.8629 65.0597 44.3935 64.6751 43.9319 64.177C43.4704 63.6829 43.0166 63.0062 42.572 62.1522L37.9551 53.4816C37.3397 52.3199 36.7921 51.2755 36.3136 50.3524C35.8351 49.428 35.3983 48.6 35.0058 47.8634C34.6121 47.1293 34.2705 46.4526 33.9797 45.8372C33.6889 45.2218 33.406 44.6233 33.1335 44.0405C32.8597 45.4082 32.535 46.8372 32.1582 48.3249C31.7814 49.8126 31.3381 51.5311 30.8244 53.4803L27.5922 65.4339H17.1758L26.051 35.2682C26.5295 33.6619 27.3158 32.4715 28.411 31.7035C29.5049 30.933 30.7201 30.5483 32.0539 30.5483C33.4217 30.5483 34.5756 30.8743 35.5169 31.5236C36.457 32.1742 37.2354 33.0621 37.8521 34.1913L43.34 43.888Z" fill="white"/>
<path d="M62.1945 31.5498C61.2531 32.2173 60.476 33.0974 59.8593 34.1914L54.3701 43.9389C53.6178 45.2727 52.9594 46.4357 52.3948 47.4267C51.8302 48.4189 51.3335 49.3172 50.9071 50.1191C50.4795 50.9236 50.1026 51.642 49.778 52.2743C49.452 52.9067 49.1534 53.5313 48.8796 54.1467C48.8692 54.1258 48.8796 65.9921 48.8796 65.9921C49.4598 65.9842 49.9736 65.9464 50.4703 65.8695C51.0166 65.7848 51.5303 65.6035 52.0089 65.331C52.4874 65.0585 52.9581 64.6739 53.4196 64.1758C53.8812 63.6817 54.3349 63.005 54.7795 62.151L59.3964 53.5313C60.5582 51.3095 61.4995 49.4711 62.2179 48.016C62.9207 46.5922 63.5935 45.2193 64.1672 44.0393V30.7271C63.4449 30.8874 62.7551 31.1521 62.1945 31.5498Z" fill="#DBEAFF"/>
<defs>
<linearGradient id="paint0_linear_658_188" x1="-7.63685" y1="4.84195" x2="30.4672" y2="111.348" gradientUnits="userSpaceOnUse">
<stop stop-color="#2E68D2"/>
<stop offset="1" stop-color="#104D9D"/>
</linearGradient>
</defs>
</svg>
