<svg width="21" height="22" viewBox="0 0 21 22" fill="none" xmlns="http://www.w3.org/2000/svg">
<path d="M8.25 11C8.25 12.0125 9.07081 12.8333 10.0833 12.8333C11.0959 12.8333 11.9167 12.0125 11.9167 11C11.9167 9.98748 11.0959 9.16667 10.0833 9.16667C9.07081 9.16667 8.25 9.98748 8.25 11Z" fill="#494949"/>
<path fill-rule="evenodd" clip-rule="evenodd" d="M12.808 2.22422C12.245 -0.741407 7.92167 -0.741407 7.35866 2.22422C7.04669 3.86749 5.316 4.84942 3.71186 4.29328C0.81685 3.28962 -1.34481 6.96898 0.98719 8.93094C2.27936 10.0181 2.27936 11.9819 0.987189 13.0691C-1.34481 15.031 0.81685 18.7104 3.71186 17.7067C5.316 17.1506 7.04669 18.1325 7.35866 19.7758C7.92167 22.7414 12.245 22.7414 12.808 19.7758C13.12 18.1325 14.8507 17.1506 16.4548 17.7067C19.3498 18.7104 21.5115 15.031 19.1795 13.0691C17.8873 11.9819 17.8873 10.0181 19.1795 8.93094C21.5115 6.96898 19.3498 3.28962 16.4548 4.29328C14.8507 4.84942 13.12 3.86749 12.808 2.22422ZM6.41667 11C6.41667 13.025 8.05829 14.6667 10.0833 14.6667C12.1084 14.6667 13.75 13.025 13.75 11C13.75 8.97496 12.1084 7.33333 10.0833 7.33333C8.05829 7.33333 6.41667 8.97496 6.41667 11Z" fill="#494949"/>
</svg>
