<svg width="21" height="19" viewBox="0 0 21 19" fill="none" xmlns="http://www.w3.org/2000/svg">
<path d="M3.69765 4.06967C1.6555 4.06967 0 5.76121 0 7.84783C0 9.80752 1.46022 11.4187 3.32956 11.6075L5.30363 17.9297C5.5024 18.5663 6.09368 19 6.76278 19C7.60674 19 8.29091 18.3183 8.29091 17.4774V11.9033C10.1539 12.3673 11.9186 13.343 13.6226 14.2851C14.2217 14.6164 14.8134 14.9435 15.3992 15.2428C18.6868 16.9223 19.5731 13.5968 19.8112 10.7254C20.1294 10.7034 20.335 10.6461 20.4844 10.4972C20.7273 10.2552 20.7273 9.8658 20.7273 9.08696V6.6087C20.7273 5.82985 20.7273 5.44043 20.4844 5.19848C20.335 5.04955 20.1294 4.99229 19.8112 4.97028C19.5731 2.09881 18.6868 -1.2267 15.3992 0.452865C14.8134 0.75213 14.2218 1.07926 13.6226 1.41054C11.8824 2.3727 10.0788 3.3699 8.17192 3.82125C7.38393 4.00776 6.98994 4.10102 6.81133 4.3262C6.63273 4.55139 6.63273 4.9034 6.63273 5.60743V6.6087C6.63273 7.06494 6.26153 7.43479 5.80364 7.43479C5.34574 7.43479 4.97455 7.06494 4.97455 6.6087V5.34194C4.97455 4.92589 4.97455 4.71787 4.90106 4.55575C4.81798 4.37246 4.67066 4.22567 4.4867 4.14289C4.32399 4.06967 4.11521 4.06967 3.69765 4.06967Z" fill="#494949"/>
</svg>
