<svg width="20" height="14" viewBox="0 0 20 14" fill="none" xmlns="http://www.w3.org/2000/svg">
<path d="M2.91667 3.5C2.91667 5.433 4.48367 7 6.41666 7C8.34966 7 9.91666 5.433 9.91666 3.5C9.91666 1.567 8.34966 0 6.41666 0C4.48367 0 2.91667 1.567 2.91667 3.5Z" fill="#494949"/>
<path d="M0 11.0833C0 13.4852 1.13254 14 6.41666 14C11.7008 14 12.8333 13.4852 12.8333 11.0833C12.8333 8.68146 11.7008 8.16667 6.41666 8.16667C1.13254 8.16667 0 8.68146 0 11.0833Z" fill="#494949"/>
<path d="M11.6667 5.24999C11.6667 4.6862 12.1238 4.22916 12.6876 4.22916H14.7292V2.18749C14.7292 1.6237 15.1863 1.16666 15.7501 1.16666C16.3139 1.16666 16.7709 1.6237 16.7709 2.18749V4.22916H18.8126C19.3764 4.22916 19.8334 4.6862 19.8334 5.24999C19.8334 5.81378 19.3764 6.27082 18.8126 6.27082H16.7709V8.31249C16.7709 8.87628 16.3139 9.33332 15.7501 9.33332C15.1863 9.33332 14.7292 8.87628 14.7292 8.31249V6.27082H12.6876C12.1238 6.27082 11.6667 5.81378 11.6667 5.24999Z" fill="#494949"/>
</svg>
