<svg width="34" height="35" viewBox="0 0 34 35" fill="none" xmlns="http://www.w3.org/2000/svg">
<g filter="url(#filter0_d_5730_15286)">
<path fill-rule="evenodd" clip-rule="evenodd" d="M23.579 6.67547C21.9635 6.36466 19.8373 6.23438 17 6.23438C14.1679 6.23438 12.0449 6.37192 10.4332 6.6903C8.83506 7.00601 7.91804 7.46612 7.33754 7.98212C6.19836 8.99472 5.5 10.998 5.5 16.1788C5.5 19.4562 5.81175 21.655 6.47585 22.9834C6.77529 23.5823 7.11134 23.929 7.47817 24.1473C7.85513 24.3717 8.4457 24.5677 9.41695 24.5677C11.1198 24.5677 12.5168 24.9535 13.6586 25.7272C14.7555 26.4704 15.3934 27.4313 15.793 28.06L15.9477 28.3038C16.2988 28.8577 16.3992 29.0161 16.5422 29.1444C16.5745 29.1735 16.5889 29.1802 16.6098 29.1879C16.6379 29.1983 16.7491 29.2344 17.0003 29.2344C17.2516 29.2344 17.3629 29.1983 17.391 29.1879C17.4118 29.1802 17.4262 29.1735 17.4585 29.1445C17.6015 29.0162 17.7019 28.8578 18.0531 28.3037L18.2076 28.0602C18.6072 27.4314 19.2451 26.4705 20.3419 25.7272C21.4838 24.9536 22.8807 24.5677 24.5836 24.5677C25.568 24.5677 26.1644 24.3746 26.5418 24.1545C26.9049 23.9428 27.2342 23.6087 27.5283 23.0254C28.1864 21.7203 28.5 19.5308 28.5 16.1788C28.5 10.9259 27.7977 8.93696 26.6703 7.94315C26.0949 7.43601 25.1818 6.98385 23.579 6.67547ZM31 16.1788C31 5.80849 28.529 3.73438 17 3.73438C5.471 3.73438 3 5.93082 3 16.1788C3 22.7869 4.16695 27.0677 9.41695 27.0677C12.2226 27.0677 13.0572 28.4005 13.8344 29.6415C14.5115 30.7227 15.145 31.7343 17.0003 31.7344C18.8557 31.7344 19.4892 30.7228 20.1663 29.6415C20.9434 28.4005 21.778 27.0677 24.5836 27.0677C29.8336 27.0677 31 22.9196 31 16.1788ZM9.91663 14.2344C9.91663 13.544 10.4763 12.9844 11.1666 12.9844H15.8333C16.5236 12.9844 17.0833 13.544 17.0833 14.2344C17.0833 14.9247 16.5236 15.4844 15.8333 15.4844H11.1666C10.4763 15.4844 9.91663 14.9247 9.91663 14.2344ZM11.1666 17.6514C10.4763 17.6514 9.91663 18.211 9.91663 18.9014C9.91663 19.5917 10.4763 20.1514 11.1666 20.1514H22.8333C23.5236 20.1514 24.0833 19.5917 24.0833 18.9014C24.0833 18.211 23.5236 17.6514 22.8333 17.6514H11.1666Z" fill="white"/>
</g>
<defs>
<filter id="filter0_d_5730_15286" x="0" y="0.734375" width="34" height="34" filterUnits="userSpaceOnUse" color-interpolation-filters="sRGB">
<feFlood flood-opacity="0" result="BackgroundImageFix"/>
<feColorMatrix in="SourceAlpha" type="matrix" values="0 0 0 0 0 0 0 0 0 0 0 0 0 0 0 0 0 0 127 0" result="hardAlpha"/>
<feOffset/>
<feGaussianBlur stdDeviation="1.5"/>
<feComposite in2="hardAlpha" operator="out"/>
<feColorMatrix type="matrix" values="0 0 0 0 0 0 0 0 0 0 0 0 0 0 0 0 0 0 0.25 0"/>
<feBlend mode="normal" in2="BackgroundImageFix" result="effect1_dropShadow_5730_15286"/>
<feBlend mode="normal" in="SourceGraphic" in2="effect1_dropShadow_5730_15286" result="shape"/>
</filter>
</defs>
</svg>
