<svg width="50" height="95" viewBox="0 0 50 95" fill="none" xmlns="http://www.w3.org/2000/svg">
<path d="M44.6414 66.6537C44.632 67.1785 44.5883 67.7025 44.5109 68.2209C43.6782 73.8046 38.9938 78.2287 34.512 81.2095C32.6173 82.4697 30.5671 83.7151 28.3167 84.1944C28.2892 84.2004 28.2613 84.206 28.2328 84.207C28.2277 84.207 28.1649 84.2004 28.169 84.1962C28.4839 83.8931 28.8052 83.595 29.0987 83.2704C29.3492 82.9932 29.5835 82.7012 29.8024 82.3985C30.0269 82.0883 30.2351 81.766 30.4279 81.4353C30.624 81.0991 30.8042 80.753 30.9691 80.4C31.1349 80.0442 31.2853 79.6814 31.4194 79.3125C31.5536 78.9441 31.6714 78.5706 31.7729 78.1919C31.8731 77.8179 31.9574 77.4393 32.024 77.0578C32.0892 76.6843 32.1372 76.3075 32.166 75.9293C32.194 75.5623 32.2038 75.1939 32.1926 74.8265C32.1921 74.8176 32.1921 74.8083 32.1916 74.7995C32.1157 72.5122 31.2047 70.3172 29.6603 68.6279C27.3107 66.0584 23.8377 64.6291 20.7423 63.1741C14.0529 60.0299 7.31131 56.6868 3.33388 50.1604C-0.381329 44.0643 -1.30024 35.809 2.16255 29.3869C3.52949 26.8519 5.2397 24.5595 7.00811 22.2942C7.09334 22.1843 7.19255 22.0781 7.2992 21.9891C7.34531 21.9537 7.44079 21.936 7.49062 21.9607C7.53673 21.9854 7.58284 22.0743 7.57585 22.1307C7.56514 22.2476 7.50692 22.3543 7.48363 22.4712C6.0566 29.6273 8.28471 37.2151 12.8313 42.8371C14.725 45.1783 17.1408 47.0292 19.7345 48.534C23.2364 50.5656 27.0177 52.0364 30.759 53.5561C34.0462 54.8914 37.5509 56.1857 40.4264 58.3146C42.4147 59.7868 43.9362 61.7718 44.4276 64.2332C44.5859 65.0287 44.6553 65.8419 44.6414 66.6537Z" fill="#FF4D67"/>
<path d="M29.9982 40.017C29.8632 39.9993 29.8101 39.9178 29.7747 39.8326C29.6289 39.4604 29.4836 39.0846 29.3415 38.7087C28.6285 36.8229 27.7203 35.0359 26.6416 33.3378C25.7158 31.881 24.7116 30.4768 23.5552 29.1936C22.6079 28.1406 21.6 27.1449 20.5251 26.2124C19.0915 24.968 17.5555 23.8763 15.9305 22.9047C14.2418 21.8946 12.4747 21.0506 10.6085 20.4233C10.4064 20.3558 10.2112 20.2742 10.0198 20.182C9.8815 20.1145 9.89174 19.9091 10.0375 19.8416C10.275 19.7354 10.513 19.6357 10.7576 19.544C14.0252 18.3424 17.0301 16.6759 19.7268 14.4744C23.2678 11.5779 26.0991 8.1077 28.153 4.00918C28.7137 2.88908 29.1962 1.73311 29.6289 0.559908C29.6927 0.382461 29.7425 0.198493 29.8739 0.053182C29.9377 -0.0176106 30.0723 -0.0213365 30.1189 0.0638941C30.2074 0.230629 30.2996 0.396899 30.3601 0.57062C31.5873 4.00918 33.3865 7.12918 35.6887 9.95436C36.6718 11.1634 37.7398 12.2975 38.9209 13.3259C39.9395 14.2122 40.9613 15.084 42.0749 15.8464C44.3705 17.4132 46.8185 18.6823 49.4299 19.6362C49.5398 19.6753 49.6534 19.714 49.7633 19.7601C49.87 19.8062 49.9939 19.8486 50.0013 19.9906C50.0116 20.1713 49.8593 20.2244 49.7317 20.2742C49.0927 20.5225 48.4434 20.7493 47.8119 21.0083C45.7687 21.8484 43.8666 22.9369 42.0502 24.1883C40.6064 25.1846 39.2721 26.3116 38.0057 27.517C37.1366 28.3502 36.3384 29.2575 35.5787 30.1899C34.0213 32.1041 32.7014 34.171 31.6335 36.3935C31.1617 37.3721 30.722 38.3645 30.3704 39.3962C30.3103 39.5736 30.232 39.7473 30.1468 39.9136C30.1151 39.9676 30.0369 39.9923 29.9982 40.017Z" fill="#FF4D67"/>
<path d="M23.6997 83.6848C23.682 83.71 23.6498 83.7808 23.593 83.8092C23.4263 83.894 23.2488 83.9652 23.0751 84.036C21.5107 84.6671 20.0417 85.4752 18.7149 86.5245C16.5259 88.258 14.8371 90.385 13.7193 92.9517C13.5489 93.3415 13.3928 93.7388 13.2298 94.1286C13.1837 94.2423 13.1162 94.3592 12.9848 94.3415C12.9103 94.3307 12.8251 94.2423 12.7827 94.164C12.7012 94.0187 12.6481 93.8627 12.5876 93.7104C11.8317 91.7179 10.7036 89.956 9.28453 88.3753C8.31253 87.2976 7.18777 86.3969 5.97777 85.6028C4.94523 84.9256 3.84887 84.3727 2.69244 83.9401C2.5611 83.8907 2.43674 83.8232 2.31286 83.7561C2.23834 83.7133 2.23834 83.554 2.31984 83.5111C2.52943 83.4049 2.73854 83.2913 2.95837 83.2098C3.90942 82.8446 4.8246 82.4055 5.68669 81.8591C6.60932 81.2779 7.47839 80.6328 8.26642 79.8742C9.29152 78.8886 10.2458 77.8463 11.0124 76.6373C11.6724 75.5954 12.2541 74.5177 12.6728 73.3547C12.7329 73.1847 12.7473 72.922 12.9602 72.9043C13.2298 72.8797 13.2582 73.1633 13.3258 73.351C13.8115 74.6662 14.4431 75.9037 15.2451 77.056C16.3768 78.6795 17.7461 80.0726 19.3571 81.2281C20.5135 82.058 21.7519 82.7492 23.0928 83.2382C23.2703 83.302 23.4407 83.3872 23.6075 83.4725C23.6713 83.5041 23.7174 83.5647 23.6997 83.6848Z" fill="#FF4D67"/>
</svg>
