<svg width="26" height="25" viewBox="0 0 26 25" fill="none" xmlns="http://www.w3.org/2000/svg">
<path d="M7.79169 9.375C7.79169 8.22441 8.72443 7.29167 9.87502 7.29167C11.0256 7.29167 11.9584 8.22441 11.9584 9.375C11.9584 10.5256 11.0256 11.4583 9.87502 11.4583C8.72443 11.4583 7.79169 10.5256 7.79169 9.375Z" fill="#494949"/>
<path fill-rule="evenodd" clip-rule="evenodd" d="M1.72317 19.1602C1.49312 19.3735 1.11761 19.2752 1.04545 18.9698C0.647819 17.2871 0.5 15.1645 0.5 12.5C0.5 2.20625 2.70625 0 13 0C23.2937 0 25.5 2.20625 25.5 12.5C25.5 12.5344 25.5 12.5687 25.4999 12.6029C25.4999 12.6067 25.4959 12.6093 25.4924 12.6077C24.8341 12.3078 23.9002 11.9576 22.8114 11.7709C20.6048 11.3927 17.7254 11.6933 15.3411 14.4182C13.3022 16.7484 12.423 16.9338 11.7639 16.892C11.4111 16.8696 11.0733 16.7807 10.5779 16.6504C10.4283 16.611 10.2643 16.5679 10.0812 16.5217C9.33861 16.3342 8.43221 16.1458 7.27086 16.1458C6.364 16.1458 5.46499 16.5003 4.69246 16.9265C3.90331 17.3619 3.14579 17.9288 2.49832 18.4741C2.22199 18.7067 1.9617 18.9389 1.72317 19.1602ZM5.70836 9.375C5.70836 7.07381 7.57384 5.20833 9.87502 5.20833C12.1762 5.20833 14.0417 7.07381 14.0417 9.375C14.0417 11.6762 12.1762 13.5417 9.87502 13.5417C7.57384 13.5417 5.70836 11.6762 5.70836 9.375Z" fill="#494949"/>
<path d="M2.36548 21.4421C2.23069 21.58 2.21047 21.794 2.32437 21.9496C4.05943 24.3192 7.28195 25 13 25C22.4178 25 25.0659 23.1533 25.4484 14.9559C25.4491 14.9424 25.4424 14.9292 25.431 14.9221L25.415 14.9124C25.3816 14.8921 25.3283 14.8605 25.257 14.8205C25.1141 14.7403 24.9 14.6271 24.6287 14.5035C24.0826 14.2547 23.3238 13.9725 22.4594 13.8243C20.7598 13.5329 18.6913 13.7531 16.909 15.7901C14.7812 18.2218 13.3167 19.0781 11.6319 18.9711C11.0558 18.9345 10.4629 18.777 9.93447 18.6366C9.80941 18.6033 9.68795 18.5711 9.57119 18.5416C8.91404 18.3757 8.19284 18.2292 7.27086 18.2292C6.87563 18.2292 6.34235 18.3956 5.69887 18.7506C5.072 19.0965 4.42978 19.5712 3.84027 20.0676C3.25437 20.561 2.74217 21.0574 2.37549 21.4319C2.37214 21.4353 2.3688 21.4387 2.36548 21.4421Z" fill="#494949"/>
</svg>
