<svg width="250" height="250" viewBox="0 0 250 250" fill="none" xmlns="http://www.w3.org/2000/svg">
<circle cx="125" cy="125" r="125" fill="#F1F7FF"/>
<path d="M192.774 96.7005C192.616 94.057 191.033 92.2396 188.501 92.2396C187.551 92.2396 186.601 92.2396 185.652 92.2396C180.428 92.2396 176.788 98.5179 176.788 98.5179C176.471 99.344 175.996 100.005 175.363 100.996C174.73 98.6832 174.255 96.7005 173.78 94.8831C171.564 86.6221 168.082 78.8568 163.333 71.9175C160.009 66.9609 155.261 65.3087 150.037 64.3174C140.54 62.6652 130.885 62.5 121.388 62.5C111.733 62.5 102.235 62.6652 92.7383 64.3174C87.515 65.3087 82.7664 67.1262 79.4424 71.9175C74.6939 79.022 71.2116 86.6221 68.9956 94.8831C68.5208 96.7005 68.0459 98.6832 67.4128 100.996C66.7796 99.8397 66.3048 99.1788 65.9882 98.5179C65.9882 98.5179 62.3477 92.2396 57.1243 92.2396C56.1746 92.2396 55.2249 92.2396 54.2752 92.2396C51.7426 92.4048 50.1597 94.2222 50.0015 96.7005C50.0015 98.5179 50.0015 100.501 50.0015 102.318C50.0015 105.127 51.9009 106.944 54.5917 106.944C57.2826 106.944 59.9734 106.944 62.6642 106.944C63.7722 106.944 64.8802 106.944 65.8299 106.944C65.9882 107.109 65.9882 107.275 66.1465 107.44C65.83 107.605 65.3551 107.77 65.1968 108.101C58.3906 114.875 54.75 123.136 54.9083 133.049C55.0666 138.997 55.5414 144.78 56.1746 150.727C56.6494 155.188 57.5991 159.649 59.6568 163.78C60.4483 165.597 61.5563 166.919 63.4557 167.249C64.4054 167.415 64.4054 168.076 64.4054 168.736C64.4054 171.215 64.4054 173.528 64.4054 176.006C64.4054 179.476 66.3048 181.458 69.6288 181.458C72.4779 181.458 75.1688 181.458 78.0179 181.458C81.6584 181.458 83.3996 179.476 83.3996 175.841C83.3996 174.023 83.3996 172.041 83.3996 170.058C96.2206 171.049 108.883 171.545 121.546 171.545C134.209 171.545 147.03 171.049 159.693 170.058C159.693 172.041 159.693 174.023 159.693 175.841C159.693 179.476 161.592 181.458 165.074 181.458C167.924 181.458 170.614 181.458 173.464 181.458C176.788 181.458 178.687 179.476 178.687 176.006C178.687 173.528 178.687 171.215 178.687 168.736C178.687 167.91 178.845 167.415 179.637 167.249C181.536 166.919 182.644 165.432 183.436 163.78C185.335 159.649 186.443 155.188 186.918 150.727C187.551 144.945 188.026 138.997 188.184 133.049C188.342 123.136 184.702 114.875 177.896 108.101C177.579 107.77 177.262 107.77 176.946 107.44C177.104 107.275 177.104 107.109 177.262 106.944C178.37 106.944 179.478 106.944 180.428 106.944C183.119 106.944 185.81 106.944 188.501 106.944C191.191 106.944 192.933 105.127 193.091 102.318C192.933 100.335 192.933 98.5179 192.774 96.7005ZM75.4853 102.483C77.543 93.5613 80.7087 85.3003 85.1407 77.3698C85.4573 76.8741 85.6156 76.5437 85.9321 76.3785C86.2487 76.048 86.5653 75.8828 87.0401 75.7176C89.8892 74.3958 98.4366 71.7523 121.23 71.5871C144.023 71.7523 152.57 74.3958 155.419 75.7176C155.894 75.8828 156.211 76.048 156.527 76.3785C156.844 76.7089 157.16 77.0394 157.319 77.3698C161.751 85.1351 164.916 93.5613 166.974 102.483C167.132 103.144 167.132 103.805 167.29 104.135C151.937 102.814 136.425 101.988 121.071 101.988C105.718 101.988 90.3641 102.648 74.8522 104.135C75.327 103.64 75.327 102.979 75.4853 102.483ZM77.8596 140.153C72.3196 140.153 67.7294 135.362 67.7294 129.579C67.7294 123.797 72.3196 119.005 77.8596 119.005C83.3996 119.005 87.9898 123.797 87.9898 129.579C87.9898 135.527 83.3996 140.153 77.8596 140.153ZM164.916 140.153C159.376 140.153 154.786 135.362 154.786 129.579C154.786 123.797 159.376 119.005 164.916 119.005C170.456 119.005 175.046 123.797 175.046 129.579C175.046 135.527 170.456 140.153 164.916 140.153Z" fill="#494949"/>
</svg>
