<svg width="250" height="250" viewBox="0 0 250 250" fill="none" xmlns="http://www.w3.org/2000/svg">
<circle cx="125" cy="125" r="125" fill="#F1F7FF"/>
<path d="M66.5417 162.377C60.891 136.554 62.4189 113.612 63.7168 104.993C64.6437 98.8386 97.3952 73.6726 116.044 59.7876C123.593 54.1673 133.858 54.1419 141.43 59.7296C160.236 73.6062 193.308 98.8431 193.716 104.993C193.728 105.187 193.742 105.389 193.756 105.597C194.358 114.63 195.857 137.137 190.888 162.377C188.064 176.723 179.692 183.199 162.627 185.331C161.41 185.483 160.196 185.627 158.985 185.763C157.368 185.944 155.961 184.669 155.961 183.038V144.146C155.961 135.017 148.576 127.616 139.468 127.616L117.477 127.616C108.368 127.616 100.984 135.017 100.984 144.146L100.984 182.991C100.984 184.626 99.5712 185.902 97.9508 185.714C96.9025 185.593 95.8529 185.465 94.8019 185.331C77.7432 183.155 69.6586 176.62 66.5417 162.377Z" fill="#494949"/>
<path d="M111.979 184.389C111.979 185.843 113.107 187.048 114.555 187.126C123.813 187.621 133.046 187.625 142.385 187.135C143.835 187.059 144.965 185.854 144.965 184.398L144.965 144.146C144.965 141.103 142.504 138.636 139.468 138.636H117.477C114.441 138.636 111.979 141.103 111.979 144.146L111.979 184.389Z" fill="#494949"/>
</svg>
