<svg width="32" height="28" viewBox="0 0 32 28" fill="none" xmlns="http://www.w3.org/2000/svg">
<g filter="url(#filter0_d_5730_15224)">
<path fill-rule="evenodd" clip-rule="evenodd" d="M12.0732 5.07322C12.1201 5.02634 12.1837 5 12.25 5H19.75C19.8163 5 19.8799 5.02634 19.9268 5.07322C19.9737 5.12011 20 5.1837 20 5.25C20 6.17826 20.3687 7.0685 21.0251 7.72487C21.6815 8.38125 22.5717 8.75 23.5 8.75H24.75C25.1478 8.75 25.5294 8.90804 25.8107 9.18934C26.092 9.47064 26.25 9.85218 26.25 10.25V21.5C26.25 21.8978 26.092 22.2794 25.8107 22.5607C25.5294 22.842 25.1478 23 24.75 23H7.25C6.85218 23 6.47064 22.842 6.18934 22.5607C5.90804 22.2794 5.75 21.8978 5.75 21.5V10.25C5.75 9.85218 5.90804 9.47064 6.18934 9.18934C6.47064 8.90804 6.85217 8.75 7.25 8.75H8.5C9.42826 8.75 10.3185 8.38125 10.9749 7.72487C11.6313 7.0685 12 6.17826 12 5.25C12 5.1837 12.0263 5.12011 12.0732 5.07322ZM12.25 3C11.6533 3 11.081 3.23705 10.659 3.65901C10.2371 4.08097 10 4.65326 10 5.25C10 5.64782 9.84196 6.02936 9.56066 6.31066C9.27936 6.59196 8.89782 6.75 8.5 6.75H7.25C6.32174 6.75 5.4315 7.11875 4.77513 7.77513C4.11875 8.4315 3.75 9.32174 3.75 10.25V21.5C3.75 22.4283 4.11875 23.3185 4.77513 23.9749C5.4315 24.6313 6.32174 25 7.25 25H24.75C25.6783 25 26.5685 24.6313 27.2249 23.9749C27.8813 23.3185 28.25 22.4283 28.25 21.5V10.25C28.25 9.32174 27.8813 8.4315 27.2249 7.77513C26.5685 7.11875 25.6783 6.75 24.75 6.75H23.5C23.1022 6.75 22.7206 6.59196 22.4393 6.31066C22.158 6.02936 22 5.64782 22 5.25C22 4.65326 21.7629 4.08097 21.341 3.65901C20.919 3.23705 20.3467 3 19.75 3H12.25ZM16 8C14.1435 8 12.363 8.7375 11.0503 10.0503C9.7375 11.363 9 13.1435 9 15C9 16.8565 9.7375 18.637 11.0503 19.9497C12.363 21.2625 14.1435 22 16 22C17.8565 22 19.637 21.2625 20.9497 19.9497C22.2625 18.637 23 16.8565 23 15C23 13.1435 22.2625 11.363 20.9497 10.0503C19.637 8.7375 17.8565 8 16 8ZM12.4645 11.4645C13.4021 10.5268 14.6739 10 16 10C17.3261 10 18.5979 10.5268 19.5355 11.4645C20.4732 12.4021 21 13.6739 21 15C21 16.3261 20.4732 17.5979 19.5355 18.5355C18.5979 19.4732 17.3261 20 16 20C14.6739 20 13.4021 19.4732 12.4645 18.5355C11.5268 17.5979 11 16.3261 11 15C11 13.6739 11.5268 12.4021 12.4645 11.4645Z" fill="white"/>
</g>
<defs>
<filter id="filter0_d_5730_15224" x="0.75" y="0" width="30.5" height="28" filterUnits="userSpaceOnUse" color-interpolation-filters="sRGB">
<feFlood flood-opacity="0" result="BackgroundImageFix"/>
<feColorMatrix in="SourceAlpha" type="matrix" values="0 0 0 0 0 0 0 0 0 0 0 0 0 0 0 0 0 0 127 0" result="hardAlpha"/>
<feOffset/>
<feGaussianBlur stdDeviation="1.5"/>
<feComposite in2="hardAlpha" operator="out"/>
<feColorMatrix type="matrix" values="0 0 0 0 0 0 0 0 0 0 0 0 0 0 0 0 0 0 0.25 0"/>
<feBlend mode="normal" in2="BackgroundImageFix" result="effect1_dropShadow_5730_15224"/>
<feBlend mode="normal" in="SourceGraphic" in2="effect1_dropShadow_5730_15224" result="shape"/>
</filter>
</defs>
</svg>
