<svg width="28" height="26" viewBox="0 0 28 26" fill="none" xmlns="http://www.w3.org/2000/svg">
<g filter="url(#filter0_d_5730_15232)">
<path d="M19.75 17.1305C19.59 17.1305 19.44 17.0826 19.3 16.9868C18.97 16.7472 18.9 16.2968 19.15 15.9805C20.41 14.3705 20.68 12.2334 19.87 10.3838C19.71 10.0197 19.89 9.59801 20.27 9.44468C20.65 9.29134 21.09 9.46385 21.25 9.82801C22.27 12.1472 21.92 14.8401 20.35 16.8526C20.2 17.0347 19.98 17.1305 19.75 17.1305Z" fill="white"/>
<path d="M21.58 19.5261C21.42 19.5261 21.27 19.4782 21.13 19.3824C20.8 19.1428 20.73 18.6924 20.98 18.3761C23.12 15.6449 23.59 11.984 22.21 8.83111C22.05 8.46694 22.23 8.04528 22.61 7.89194C22.99 7.73861 23.43 7.91111 23.59 8.27528C25.18 11.8978 24.64 16.0953 22.18 19.2386C22.04 19.4303 21.81 19.5261 21.58 19.5261Z" fill="white"/>
<path d="M15.79 13.4986C16.42 12.8948 17.5 13.3261 17.5 14.179V16.9869C17.5 18.6352 16.88 19.8715 15.77 20.4656C15.32 20.7052 14.82 20.8202 14.3 20.8202C13.5 20.8202 12.64 20.5615 11.76 20.0344L11.12 19.6511C10.58 19.3252 10.49 18.5969 10.94 18.1656L15.79 13.4986Z" fill="white"/>
<path d="M23.52 3.21562C23.22 2.92813 22.73 2.92813 22.43 3.21562L17.48 7.95937C17.42 6.42604 16.82 5.27604 15.76 4.71062C14.64 4.11646 13.21 4.26979 11.75 5.14187L8.84 6.88604C8.64 7.00104 8.41 7.06812 8.18 7.06812H7.25H6.75C4.33 7.06812 3 8.34271 3 10.6619V14.4952C3 16.8144 4.33 18.089 6.75 18.089H6.91L3.97 20.9065C3.67 21.194 3.67 21.6635 3.97 21.951C4.13 22.0852 4.32 22.1619 4.52 22.1619C4.72 22.1619 4.91 22.0852 5.06 21.9415L23.52 4.25062C23.83 3.96312 23.83 3.50312 23.52 3.21562Z" fill="white"/>
</g>
<defs>
<filter id="filter0_d_5730_15232" x="0" y="0" width="27.4914" height="25.1621" filterUnits="userSpaceOnUse" color-interpolation-filters="sRGB">
<feFlood flood-opacity="0" result="BackgroundImageFix"/>
<feColorMatrix in="SourceAlpha" type="matrix" values="0 0 0 0 0 0 0 0 0 0 0 0 0 0 0 0 0 0 127 0" result="hardAlpha"/>
<feOffset/>
<feGaussianBlur stdDeviation="1.5"/>
<feComposite in2="hardAlpha" operator="out"/>
<feColorMatrix type="matrix" values="0 0 0 0 0 0 0 0 0 0 0 0 0 0 0 0 0 0 0.25 0"/>
<feBlend mode="normal" in2="BackgroundImageFix" result="effect1_dropShadow_5730_15232"/>
<feBlend mode="normal" in="SourceGraphic" in2="effect1_dropShadow_5730_15232" result="shape"/>
</filter>
</defs>
</svg>
