<svg width="97" height="70" viewBox="0 0 97 70" fill="none" xmlns="http://www.w3.org/2000/svg">
<path d="M84 62C88.4183 62 92 58.1944 92 53.5C92 48.8056 88.4183 45 84 45C79.5817 45 76 48.8056 76 53.5C76 58.1944 79.5817 62 84 62Z" fill="#1D69D8"/>
<path d="M75.1646 53.5682C75.1646 48.6247 79.1693 44.618 84.1102 44.618C84.7927 44.618 85.4571 44.7026 86.0974 44.8476L97 0H80.7397L69.1123 48.9027L56.9171 0H40.089L27.8877 48.9027L16.2603 0H0L17.0153 70H38.289L48.503 28.4702L58.711 69.994H79.9847L81.8753 62.2222C78.0156 61.2311 75.1646 57.7381 75.1646 53.5682Z" fill="black"/>
</svg>
