<svg width="19" height="19" viewBox="0 0 19 19" fill="none" xmlns="http://www.w3.org/2000/svg">
<path fill-rule="evenodd" clip-rule="evenodd" d="M0 9.5C0 17.3232 1.67675 19 9.5 19C17.3232 19 19 17.3232 19 9.5C19 1.67675 17.3232 0 9.5 0C1.67675 0 0 1.67675 0 9.5ZM13.2265 6.56521C13.5356 6.87437 13.5356 7.37563 13.2265 7.68479L9.26813 11.6431C8.95896 11.9523 8.45771 11.9523 8.14854 11.6431L6.16937 9.66396C5.86021 9.35479 5.86021 8.85354 6.16937 8.54437C6.47854 8.23521 6.97979 8.23521 7.28896 8.54437L8.70833 9.96375L12.1069 6.56521C12.416 6.25604 12.9173 6.25604 13.2265 6.56521Z" fill="#127FA5"/>
</svg>
