<svg width="20" height="20" viewBox="0 0 20 20" fill="none" xmlns="http://www.w3.org/2000/svg">
<path d="M12.2129 5.59786C12.6232 5.83475 12.7638 6.35942 12.5269 6.76973C12.29 7.18004 11.7653 7.32062 11.355 7.08373C10.9447 6.84683 10.8041 6.32217 11.041 5.91186C11.2779 5.50155 11.8026 5.36097 12.2129 5.59786Z" fill="#127FA5"/>
<path fill-rule="evenodd" clip-rule="evenodd" d="M4.67331 0.979858C3.73841 1.87709 -2.61199 11.2801 1.21563 15.0087C2.40381 16.1662 7.9966 19.3405 9.56905 19.8323C14.6857 21.4326 19.7237 11.0845 19.9879 9.82301C20.1898 8.85895 17.8246 4.24155 16.3756 1.60983C15.8347 0.627333 14.7214 -0.0412794 13.5912 0.0019832C10.6286 0.115384 5.35603 0.324645 4.67331 0.979858ZM13.0462 4.15448C14.2537 4.85161 14.6674 6.39559 13.9703 7.60306C13.2731 8.81052 11.7291 9.22423 10.5217 8.5271C9.31421 7.82997 8.9005 6.28599 9.59763 5.07853C10.2948 3.87106 11.8387 3.45735 13.0462 4.15448ZM5.0822 11.2167C4.67972 10.9843 4.16506 11.1222 3.93268 11.5247C3.7003 11.9272 3.83821 12.4419 4.24069 12.6742L10.0721 16.041C10.4746 16.2734 10.9893 16.1355 11.2217 15.733C11.454 15.3305 11.3161 14.8159 10.9137 14.5835L5.0822 11.2167Z" fill="#127FA5"/>
</svg>
