<svg width="42" height="42" viewBox="0 0 42 42" fill="none" xmlns="http://www.w3.org/2000/svg">
<rect width="42" height="42" rx="21" fill="#F1F7FF"/>
<path fill-rule="evenodd" clip-rule="evenodd" d="M27.2466 24.2069C27.2463 23.9395 27.1656 23.6784 27.0151 23.4575C26.8645 23.2365 26.6509 23.0659 26.4022 22.9679L26.3572 22.9501V18.8281C26.3556 17.6668 25.9686 16.539 25.2568 15.6215C24.5451 14.7039 23.5489 14.0486 22.4246 13.7583L22.3712 13.7446V13.2475C22.3712 12.9166 22.2397 12.5993 22.0058 12.3654C21.7718 12.1314 21.4545 12 21.1237 12C20.7928 12 20.4755 12.1314 20.2416 12.3654C20.0076 12.5993 19.8762 12.9166 19.8762 13.2475V13.744L19.8228 13.7577C18.6981 14.0478 17.7016 14.7032 16.9897 15.6208C16.2777 16.5385 15.8906 17.6666 15.889 18.8281V22.9501L15.844 22.9679C15.5555 23.0814 15.3156 23.2922 15.1658 23.5637C15.0159 23.8352 14.9655 24.1505 15.0233 24.4552C15.0811 24.7599 15.2433 25.0348 15.4821 25.2327C15.7209 25.4305 16.0213 25.5388 16.3314 25.5389H25.914C26.2673 25.5387 26.606 25.3983 26.8558 25.1486C27.1057 24.8988 27.2462 24.5602 27.2466 24.2069ZM18.2662 26.7623L17.4145 27.2697C17.3825 27.2887 17.3546 27.3139 17.3324 27.3437C17.3101 27.3735 17.294 27.4074 17.2848 27.4435C17.2757 27.4796 17.2737 27.5171 17.2791 27.5539C17.2844 27.5908 17.297 27.6262 17.316 27.6581C17.335 27.6901 17.3602 27.718 17.39 27.7403C17.4199 27.7625 17.4538 27.7787 17.4898 27.7879C17.5259 27.797 17.5634 27.799 17.6003 27.7936C17.6371 27.7882 17.6725 27.7757 17.7045 27.7567L18.5563 27.2495C18.6209 27.211 18.6676 27.1485 18.6861 27.0756C18.7046 27.0027 18.6933 26.9255 18.6549 26.8609C18.6164 26.7963 18.5538 26.7496 18.4809 26.7311C18.408 26.7126 18.3308 26.7239 18.2662 26.7623ZM24.7679 27.3976L23.9192 26.8537C23.8559 26.8154 23.7801 26.8033 23.708 26.8201C23.636 26.8368 23.5733 26.881 23.5334 26.9433C23.4935 27.0057 23.4795 27.0811 23.4944 27.1536C23.5093 27.226 23.5519 27.2898 23.6132 27.3313L24.4617 27.875C24.5072 27.9043 24.5602 27.9199 24.6143 27.9198C24.6756 27.9198 24.7352 27.9 24.7843 27.8633C24.8333 27.8266 24.8692 27.775 24.8865 27.7162C24.9037 27.6574 24.9015 27.5946 24.8802 27.5372C24.8588 27.4798 24.8194 27.4308 24.7679 27.3976ZM21.1227 28.3086C21.0855 28.3086 21.0486 28.3159 21.0142 28.3301C20.9798 28.3444 20.9486 28.3652 20.9223 28.3916C20.8959 28.4179 20.8751 28.4492 20.8609 28.4836C20.8467 28.518 20.8394 28.5549 20.8394 28.5921V29.7163C20.8394 29.7915 20.8693 29.8637 20.9225 29.9169C20.9757 29.9701 21.0479 30 21.1231 30C21.1983 30 21.2705 29.9701 21.3237 29.9169C21.3769 29.8637 21.4068 29.7915 21.4068 29.7163V28.5921C21.4069 28.5548 21.3995 28.5179 21.3853 28.4834C21.371 28.4489 21.3501 28.4176 21.3237 28.3913C21.2973 28.365 21.2659 28.3441 21.2314 28.3299C21.197 28.3157 21.16 28.3085 21.1227 28.3086ZM19.1235 26.1063C19.2349 26.5523 19.4922 26.9482 19.8545 27.2311C20.2168 27.514 20.6633 27.6677 21.1229 27.6677C21.5826 27.6677 22.029 27.514 22.3913 27.2311C22.7536 26.9482 23.0109 26.5523 23.1223 26.1063H19.1235ZM20.442 13.6376V13.2475C20.442 13.067 20.5138 12.8938 20.6414 12.7662C20.7691 12.6385 20.9422 12.5668 21.1227 12.5668C21.3032 12.5668 21.4764 12.6385 21.604 12.7662C21.7317 12.8938 21.8034 13.067 21.8034 13.2475V13.6376L21.7251 13.6286C21.3254 13.5819 20.9216 13.5819 20.5219 13.6286L20.4436 13.6376H20.442ZM20.8394 15.3813C20.8394 15.344 20.8467 15.3072 20.8609 15.2728C20.8751 15.2383 20.8959 15.2071 20.9223 15.1808C20.9486 15.1544 20.9798 15.1335 21.0142 15.1193C21.0486 15.1051 21.0855 15.0977 21.1227 15.0978C22.1109 15.1014 23.0576 15.4956 23.7563 16.1944C24.455 16.8932 24.8491 17.8399 24.8526 18.8281C24.8526 18.9033 24.8227 18.9755 24.7695 19.0287C24.7163 19.0819 24.6442 19.1118 24.5689 19.1118C24.4937 19.1118 24.4215 19.0819 24.3683 19.0287C24.3151 18.9755 24.2852 18.9033 24.2852 18.8281C24.2844 17.9895 23.951 17.1855 23.3581 16.5925C22.7652 15.9994 21.9613 15.6658 21.1227 15.6648C21.0855 15.6648 21.0486 15.6574 21.0143 15.6432C20.9799 15.6289 20.9486 15.608 20.9223 15.5817C20.896 15.5554 20.8751 15.5241 20.8609 15.4897C20.8467 15.4553 20.8394 15.4185 20.8394 15.3813Z" fill="#494949"/>
</svg>
