<svg width="35" height="34" viewBox="0 0 35 34" fill="none" xmlns="http://www.w3.org/2000/svg">
<g filter="url(#filter0_d_5730_15278)">
<path fill-rule="evenodd" clip-rule="evenodd" d="M12.6861 10.117L16.6152 4.27382C17.234 3.33833 18.774 2.6763 20.0837 3.16563C21.4941 3.64057 22.4296 5.2237 22.1273 6.63413L21.379 11.3404C21.3214 11.7721 21.4365 12.1607 21.6812 12.4629C21.9259 12.7364 22.2857 12.9091 22.6742 12.9091H28.5894C29.7264 12.9091 30.7051 13.3696 31.2807 14.1756C31.8276 14.9528 31.9284 15.9602 31.5686 16.9821L28.0281 27.7618C27.582 29.5464 25.639 31 23.7105 31H18.0975C17.1333 31 15.7804 30.669 15.1616 30.0501L13.3194 28.6253C12.6141 28.0928 12.1968 27.2437 12.1968 26.3513V11.7289C12.1968 11.1533 12.3695 10.592 12.6861 10.117ZM14.6968 11.7289C14.6968 11.6536 14.7196 11.5747 14.7647 11.506L18.6847 5.67641C18.6907 5.67074 18.7018 5.66105 18.719 5.64834C18.768 5.61222 18.839 5.57238 18.9235 5.54252C19.1084 5.47716 19.2059 5.50648 19.2087 5.50751L19.247 5.52184L19.2858 5.53491C19.3587 5.55943 19.4914 5.64455 19.5943 5.81903C19.6984 5.99545 19.6832 6.10868 19.6828 6.11031L19.6688 6.17558L19.6584 6.24151L18.91 10.9477L18.905 10.9788L18.9009 11.0099C18.7547 12.1064 19.0509 13.187 19.7381 14.0359L19.7769 14.0839L19.8181 14.1299C20.5159 14.9099 21.5434 15.4091 22.6742 15.4091H28.5894C29.0354 15.4091 29.1997 15.5687 29.2413 15.6219C29.2562 15.6451 29.2713 15.6792 29.2775 15.7405C29.2851 15.8143 29.2809 15.9517 29.2105 16.1518L29.2017 16.1768L29.1934 16.202L25.6529 26.9817L25.6247 27.0676L25.6028 27.1554C25.4549 27.747 24.5765 28.5 23.7105 28.5H18.0975C17.8689 28.5 17.5304 28.4558 17.2154 28.3617C17.0648 28.3167 16.9566 28.2712 16.8917 28.2377L16.8768 28.2298L16.8169 28.1699L16.6911 28.0726L14.8489 26.6478L14.8374 26.6389L14.8259 26.6302C14.7579 26.5789 14.6968 26.4743 14.6968 26.3513V11.7289ZM6.13748 11.4229H7.61987C7.90498 11.4229 8.10164 11.4428 8.2304 11.4651C8.24491 11.5665 8.25736 11.7132 8.25736 11.9164V26.3949C8.25736 26.5981 8.24492 26.7448 8.2304 26.8462C8.10164 26.8685 7.90498 26.8885 7.61987 26.8885H6.13748C5.85238 26.8885 5.65572 26.8685 5.52696 26.8462C5.51245 26.7448 5.5 26.5981 5.5 26.3949V11.9164C5.5 11.7132 5.51244 11.5665 5.52695 11.4651C5.65571 11.4428 5.85237 11.4229 6.13748 11.4229ZM7.61987 8.92285H6.13748C3.9067 8.92285 3 9.78638 3 11.9164V26.3949C3 28.5249 3.9067 29.3885 6.13748 29.3885H7.61987C9.85065 29.3885 10.7574 28.5249 10.7574 26.3949V11.9164C10.7574 9.78638 9.85065 8.92285 7.61987 8.92285Z" fill="white"/>
</g>
<defs>
<filter id="filter0_d_5730_15278" x="0" y="0" width="34.7803" height="34" filterUnits="userSpaceOnUse" color-interpolation-filters="sRGB">
<feFlood flood-opacity="0" result="BackgroundImageFix"/>
<feColorMatrix in="SourceAlpha" type="matrix" values="0 0 0 0 0 0 0 0 0 0 0 0 0 0 0 0 0 0 127 0" result="hardAlpha"/>
<feOffset/>
<feGaussianBlur stdDeviation="1.5"/>
<feComposite in2="hardAlpha" operator="out"/>
<feColorMatrix type="matrix" values="0 0 0 0 0 0 0 0 0 0 0 0 0 0 0 0 0 0 0.25 0"/>
<feBlend mode="normal" in2="BackgroundImageFix" result="effect1_dropShadow_5730_15278"/>
<feBlend mode="normal" in="SourceGraphic" in2="effect1_dropShadow_5730_15278" result="shape"/>
</filter>
</defs>
</svg>
