<svg width="42" height="42" viewBox="0 0 42 42" fill="none" xmlns="http://www.w3.org/2000/svg">
<rect width="42" height="42" rx="21" fill="#F1F7FF"/>
<path fill-rule="evenodd" clip-rule="evenodd" d="M29 20.1111C29 14.1852 27.588 13 21 13C14.412 13 13 14.2551 13 20.1111C13 23.8872 13.6668 26.3333 16.6668 26.3333C18.2701 26.3333 18.747 27.0949 19.1911 27.8041C19.578 28.4219 19.94 29 21.0002 29C22.0604 29 22.4224 28.4219 22.8093 27.8041C23.2534 27.0949 23.7303 26.3333 25.3335 26.3333C28.3335 26.3333 29 23.963 29 20.1111ZM24.6815 19.0981C24.9955 19.2904 25.0942 19.7008 24.9019 20.0148L24.9012 20.0159L24.9004 20.0173L24.8983 20.0206L24.8926 20.0298C24.89 20.0338 24.8871 20.0384 24.8837 20.0436C24.8809 20.0479 24.8779 20.0527 24.8745 20.0578C24.8596 20.0806 24.8389 20.1113 24.8127 20.1484C24.7604 20.2224 24.6851 20.3231 24.5885 20.4368C24.3983 20.6606 24.1103 20.9534 23.7363 21.189C23.3599 21.426 22.871 21.6206 22.2985 21.5983C21.7179 21.5757 21.1304 21.3332 20.561 20.835C20.4674 20.753 20.3784 20.6857 20.2942 20.6307C20.0338 20.4606 19.8181 20.407 19.6497 20.4005C19.4187 20.3915 19.1933 20.4678 18.9744 20.6057C18.7532 20.7451 18.565 20.9315 18.4278 21.0931C18.3607 21.172 18.3095 21.2407 18.2763 21.2877C18.2597 21.3111 18.2478 21.3289 18.2409 21.3395L18.2339 21.3504C18.041 21.6626 17.6318 21.7604 17.3186 21.5686C17.0046 21.3763 16.9062 20.9654 17.0984 20.6514C17.0984 20.6514 17.0981 20.6519 17.6667 21L17.0984 20.6514L17.0988 20.6508L17.0996 20.6494L17.1017 20.6461L17.1075 20.6369C17.112 20.6297 17.1181 20.6203 17.1255 20.6089C17.1404 20.5862 17.1611 20.5554 17.1873 20.5183C17.2396 20.4443 17.3149 20.3436 17.4116 20.2299C17.6017 20.0061 17.8897 19.7133 18.2637 19.4776C18.64 19.2405 19.129 19.0459 19.7015 19.0682C20.2821 19.0907 20.8696 19.3333 21.439 19.8315C21.5729 19.9486 21.6973 20.0359 21.812 20.1003C22.0254 20.2199 22.2054 20.2603 22.3503 20.266C22.5814 20.275 22.8067 20.1987 23.0256 20.0608C23.2468 19.9215 23.435 19.7351 23.5723 19.5736C23.6104 19.5288 23.6434 19.4872 23.6708 19.4511C23.6917 19.4236 23.7094 19.3993 23.7238 19.3789C23.7404 19.3555 23.7522 19.3378 23.7592 19.3271L23.7652 19.3179L23.7658 19.3169L23.7663 19.3162C23.9592 19.004 24.3683 18.9063 24.6815 19.0981Z" fill="#494949"/>
</svg>
