<svg width="42" height="42" viewBox="0 0 42 42" fill="none" xmlns="http://www.w3.org/2000/svg">
<rect width="42" height="42" rx="21" fill="#F1F7FF"/>
<path d="M22.2549 13.0661C22.1686 12.9942 22.0477 12.9798 21.9498 13.0287C21.8491 13.0776 21.7828 13.1784 21.7828 13.2878V17.2115C20.7207 17.1626 17.2693 17.2202 14.7419 19.6556C12.6808 21.639 11.7741 24.6934 12.0476 28.7294C12.0562 28.8618 12.1541 28.9683 12.2807 28.9942C12.298 28.9971 12.3181 29 12.3354 29C12.4448 29 12.5456 28.9367 12.5945 28.8359C12.6233 28.7726 15.5968 22.733 21.7828 23.4929V27.4656C21.7828 27.575 21.8491 27.6787 21.9498 27.7247C22.0477 27.7736 22.1686 27.7593 22.2549 27.6873L30.8935 20.5998C30.9597 20.5451 31 20.4645 31 20.3781C31 20.2918 30.9597 20.2083 30.8935 20.1536L22.2549 13.0661Z" fill="#494949"/>
</svg>
