<svg width="42" height="42" viewBox="0 0 42 42" fill="none" xmlns="http://www.w3.org/2000/svg">
<rect width="42" height="42" rx="21" fill="#F1F7FF"/>
<path fill-rule="evenodd" clip-rule="evenodd" d="M14.2078 27.2404C14.1182 26.0851 14 23.9827 14 20.933V20.8783C14 19.6847 14 18.6 14.0897 17.6855C14.1806 16.7595 14.3755 15.839 14.8812 15.0591C15.9698 13.3804 18.0173 13.0111 20.6612 13.0002C23.3106 12.9893 25.3634 13.3547 26.4538 15.0453C26.9584 15.8275 27.1529 16.7513 27.2437 17.6798C27.3334 18.5975 27.3334 19.6848 27.3333 20.8788V20.933C27.3333 23.9827 27.2151 26.0851 27.1255 27.2404C27.0096 28.7336 25.3343 29.4916 24.1356 28.6505C23.4249 28.1644 22.7704 27.6434 22.2758 27.2496C22.0431 27.0643 21.8457 26.9072 21.6945 26.7951C21.1351 26.3805 20.8958 26.3327 20.6667 26.3327C20.4376 26.3327 20.1982 26.3805 19.6388 26.7951C19.4876 26.9072 19.2902 27.0643 19.0575 27.2496C18.5629 27.6434 17.9085 28.1644 17.1978 28.6505C15.9991 29.4916 14.3237 28.7336 14.2078 27.2404ZM22 17C22.3606 17 22.5129 17.0041 22.6392 17.0381C22.7273 17.0619 22.8378 17.1106 23.0292 17.3015C23.0291 17.3014 23.0291 17.3014 23.0292 17.3015C23.0307 17.3032 23.0464 17.3211 23.0701 17.3679C23.0953 17.4178 23.1228 17.4873 23.1499 17.5786C23.2047 17.7632 23.2459 17.9964 23.2749 18.2574C23.3328 18.7788 23.3333 19.328 23.3333 19.6641C23.3333 20.0323 23.6318 20.3307 24 20.3307C24.3682 20.3307 24.6667 20.0323 24.6667 19.6641V19.6562C24.6667 19.3237 24.6667 18.71 24.6001 18.1102C24.5666 17.8082 24.5141 17.489 24.4282 17.1995C24.3468 16.9252 24.2136 16.5996 23.9708 16.3575C23.6622 16.0497 23.3561 15.8504 22.9858 15.7507C22.6716 15.6661 22.3433 15.6664 22.0496 15.6666L22 15.6667C21.6318 15.6667 21.3333 15.9651 21.3333 16.3333C21.3333 16.7015 21.6318 17 22 17Z" fill="#494949"/>
</svg>
