<svg width="31" height="31" viewBox="0 0 31 31" fill="none" xmlns="http://www.w3.org/2000/svg">
<g filter="url(#filter0_d_5730_15209)">
<path fill-rule="evenodd" clip-rule="evenodd" d="M10.5621 3.93248C12.0484 3.31686 13.6413 3 15.25 3C16.8587 3 18.4516 3.31686 19.9379 3.93248C21.4241 4.5481 22.7745 5.45042 23.9121 6.58794C25.0496 7.72546 25.9519 9.07589 26.5675 10.5621C27.1831 12.0484 27.5 13.6413 27.5 15.25C27.5 16.8587 27.1831 18.4516 26.5675 19.9379C25.9519 21.4241 25.0496 22.7745 23.9121 23.9121C23.6956 24.1285 23.4714 24.3365 23.2401 24.5355C23.2081 24.5667 23.1739 24.5958 23.1377 24.6227C22.1786 25.4298 21.0998 26.0863 19.9379 26.5675C18.4516 27.1831 16.8587 27.5 15.25 27.5C13.6413 27.5 12.0484 27.1831 10.5621 26.5675C9.07589 25.9519 7.72546 25.0496 6.58794 23.9121C5.45042 22.7745 4.5481 21.4241 3.93248 19.9379C3.31686 18.4516 3 16.8587 3 15.25C3 13.6413 3.31686 12.0484 3.93248 10.5621C4.5481 9.07589 5.45042 7.72546 6.58794 6.58794C7.72546 5.45042 9.07589 4.5481 10.5621 3.93248ZM22.8651 22.111C23.6452 21.2451 24.2728 20.2516 24.7198 19.1725C25.2349 17.9289 25.5 16.596 25.5 15.25C25.5 13.904 25.2349 12.5711 24.7198 11.3275C24.2047 10.0839 23.4496 8.95396 22.4978 8.00216C21.546 7.05035 20.4161 6.29535 19.1725 5.78023C17.9289 5.26512 16.596 5 15.25 5C13.904 5 12.5711 5.26512 11.3275 5.78023C10.0839 6.29535 8.95396 7.05035 8.00216 8.00216C7.05035 8.95396 6.29535 10.0839 5.78023 11.3275C5.26512 12.5711 5 13.904 5 15.25C5 16.596 5.26512 17.9289 5.78023 19.1725C6.22724 20.2517 6.85491 21.2453 7.63506 22.1111C8.03242 21.4638 8.55157 20.8938 9.16866 20.435C10.204 19.6652 11.4599 19.2497 12.75 19.25H12.7501H12.7503H17.7496H17.75C19.0418 19.2496 20.2992 19.6662 21.3352 20.4377C21.9507 20.896 22.4685 21.465 22.8651 22.111ZM9.15577 23.4915C9.43492 22.9212 9.84736 22.4226 10.3619 22.04C11.0522 21.5268 11.8895 21.2497 12.7497 21.25H12.75H17.75H17.7503C18.6116 21.2497 19.4499 21.5274 20.1407 22.0418C20.6542 22.4241 21.0657 22.9221 21.3444 23.4914C20.6747 23.9867 19.9455 24.3996 19.1725 24.7198C17.9289 25.2349 16.596 25.5 15.25 25.5C13.904 25.5 12.5711 25.2349 11.3275 24.7198C10.5545 24.3996 9.82545 23.9867 9.15577 23.4915ZM11.8912 9.39124C12.782 8.50044 13.9902 8 15.25 8C16.5098 8 17.718 8.50044 18.6088 9.39124C19.4996 10.282 20 11.4902 20 12.75C20 14.0098 19.4996 15.218 18.6088 16.1088C17.718 16.9996 16.5098 17.5 15.25 17.5C13.9902 17.5 12.782 16.9996 11.8912 16.1088C11.0004 15.218 10.5 14.0098 10.5 12.75C10.5 11.4902 11.0004 10.282 11.8912 9.39124ZM15.25 10C14.5207 10 13.8212 10.2897 13.3055 10.8055C12.7897 11.3212 12.5 12.0207 12.5 12.75C12.5 13.4793 12.7897 14.1788 13.3055 14.6945C13.8212 15.2103 14.5207 15.5 15.25 15.5C15.9793 15.5 16.6788 15.2103 17.1945 14.6945C17.7103 14.1788 18 13.4793 18 12.75C18 12.0207 17.7103 11.3212 17.1945 10.8055C16.6788 10.2897 15.9793 10 15.25 10Z" fill="white"/>
</g>
<defs>
<filter id="filter0_d_5730_15209" x="0" y="0" width="30.5" height="30.5" filterUnits="userSpaceOnUse" color-interpolation-filters="sRGB">
<feFlood flood-opacity="0" result="BackgroundImageFix"/>
<feColorMatrix in="SourceAlpha" type="matrix" values="0 0 0 0 0 0 0 0 0 0 0 0 0 0 0 0 0 0 127 0" result="hardAlpha"/>
<feOffset/>
<feGaussianBlur stdDeviation="1.5"/>
<feComposite in2="hardAlpha" operator="out"/>
<feColorMatrix type="matrix" values="0 0 0 0 0 0 0 0 0 0 0 0 0 0 0 0 0 0 0.25 0"/>
<feBlend mode="normal" in2="BackgroundImageFix" result="effect1_dropShadow_5730_15209"/>
<feBlend mode="normal" in="SourceGraphic" in2="effect1_dropShadow_5730_15209" result="shape"/>
</filter>
</defs>
</svg>
