<svg width="19" height="19" viewBox="0 0 19 19" fill="none" xmlns="http://www.w3.org/2000/svg">
<path d="M0.5 9.5C0.5 11.4444 0.604838 12.9728 0.872322 14.1763C1.13854 15.3742 1.55919 16.2195 2.16983 16.8302C2.78048 17.4408 3.62577 17.8615 4.82367 18.1277C6.02724 18.3952 7.5556 18.5 9.5 18.5C11.4444 18.5 12.9728 18.3952 14.1763 18.1277C15.3742 17.8615 16.2195 17.4408 16.8302 16.8302C17.4408 16.2195 17.8615 15.3742 18.1277 14.1763C18.3952 12.9728 18.5 11.4444 18.5 9.5C18.5 7.5556 18.3952 6.02724 18.1277 4.82367C17.8615 3.62577 17.4408 2.78048 16.8302 2.16983C16.2195 1.55919 15.3742 1.13854 14.1763 0.872322C12.9728 0.604837 11.4444 0.5 9.5 0.5C7.5556 0.5 6.02724 0.604837 4.82367 0.872322C3.62577 1.13854 2.78048 1.55919 2.16983 2.16983C1.55919 2.78048 1.13854 3.62577 0.872322 4.82367C0.604838 6.02724 0.5 7.5556 0.5 9.5Z" stroke="#494949" stroke-linecap="round" stroke-linejoin="round"/>
</svg>
