<svg width="28" height="23" viewBox="0 0 28 23" fill="none" xmlns="http://www.w3.org/2000/svg">
<g filter="url(#filter0_d_5730_15233)">
<path d="M19.75 16.1298C19.59 16.1298 19.44 16.0819 19.3 15.9861C18.97 15.7465 18.9 15.2961 19.15 14.9798C20.72 12.9769 20.72 10.1786 19.15 8.17565C18.9 7.8594 18.97 7.40899 19.3 7.1694C19.63 6.92982 20.1 6.9969 20.35 7.31315C22.31 9.82399 22.31 13.3315 20.35 15.8423C20.2 16.034 19.98 16.1298 19.75 16.1298Z" fill="white"/>
<path d="M21.58 18.526C21.42 18.526 21.27 18.4781 21.13 18.3822C20.8 18.1426 20.73 17.6922 20.98 17.376C23.65 13.9643 23.65 9.19181 20.98 5.78014C20.73 5.46389 20.8 5.01348 21.13 4.77389C21.46 4.53431 21.93 4.60139 22.18 4.91764C25.25 8.83723 25.25 14.3189 22.18 18.2385C22.04 18.4301 21.81 18.526 21.58 18.526Z" fill="white"/>
<path d="M15.77 3.70077C14.65 3.1066 13.22 3.25993 11.76 4.13202L8.84 5.88577C8.64 6.00077 8.41 6.06785 8.18 6.06785H7.25H6.75C4.33 6.06785 3 7.34243 3 9.6616V13.4949C3 15.8141 4.33 17.0887 6.75 17.0887H7.25H8.18C8.41 17.0887 8.64 17.1558 8.84 17.2708L11.76 19.0245C12.64 19.5516 13.5 19.8103 14.3 19.8103C14.82 19.8103 15.32 19.6953 15.77 19.4558C16.88 18.8616 17.5 17.6253 17.5 15.977V7.17952C17.5 5.53118 16.88 4.29493 15.77 3.70077Z" fill="white"/>
</g>
<defs>
<filter id="filter0_d_5730_15233" x="0" y="0.344727" width="27.4825" height="22.4658" filterUnits="userSpaceOnUse" color-interpolation-filters="sRGB">
<feFlood flood-opacity="0" result="BackgroundImageFix"/>
<feColorMatrix in="SourceAlpha" type="matrix" values="0 0 0 0 0 0 0 0 0 0 0 0 0 0 0 0 0 0 127 0" result="hardAlpha"/>
<feOffset/>
<feGaussianBlur stdDeviation="1.5"/>
<feComposite in2="hardAlpha" operator="out"/>
<feColorMatrix type="matrix" values="0 0 0 0 0 0 0 0 0 0 0 0 0 0 0 0 0 0 0.25 0"/>
<feBlend mode="normal" in2="BackgroundImageFix" result="effect1_dropShadow_5730_15233"/>
<feBlend mode="normal" in="SourceGraphic" in2="effect1_dropShadow_5730_15233" result="shape"/>
</filter>
</defs>
</svg>
