<svg width="43" height="40" viewBox="0 0 43 40" fill="none" xmlns="http://www.w3.org/2000/svg">
<ellipse cx="21.0949" cy="20" rx="21.0949" ry="20" fill="#F1F7FF"/>
<path d="M21 10C15.49 10 11 14.49 11 20C11 25.51 15.49 30 21 30C26.51 30 31 25.51 31 20C31 14.49 26.51 10 21 10ZM25 20.75H21.75V24C21.75 24.41 21.41 24.75 21 24.75C20.59 24.75 20.25 24.41 20.25 24V20.75H17C16.59 20.75 16.25 20.41 16.25 20C16.25 19.59 16.59 19.25 17 19.25H20.25V16C20.25 15.59 20.59 15.25 21 15.25C21.41 15.25 21.75 15.59 21.75 16V19.25H25C25.41 19.25 25.75 19.59 25.75 20C25.75 20.41 25.41 20.75 25 20.75Z" fill="#494949"/>
</svg>
